<svg xmlns="http://www.w3.org/2000/svg" xmlns:xlink="http://www.w3.org/1999/xlink" width="58" height="58" viewBox="0 0 58 58">
  <defs>
    <polygon id="preview-a" points="0 .942 56.974 .942 56.974 37 0 37"/>
  </defs>
  <g fill="none" fill-rule="evenodd" transform="translate(.497 9.554)">
    <g transform="translate(0 .058)">
      <mask id="preview-b" fill="#fff">
        <use xlink:href="#preview-a"/>
      </mask>
      <path fill="#FFF" d="M3.7456,18.9712 C6.4186,22.3082 16.6316,34.0002 28.4866,34.0002 C40.3426,34.0002 50.5556,22.3082 53.2276,18.9712 C50.5556,15.6342 40.3426,3.9422 28.4866,3.9422 C16.6316,3.9422 6.4186,15.6342 3.7456,18.9712 M28.4866,37.0002 C13.1836,37.0002 1.1386,20.5492 0.6336,19.8482 L-0.0004,18.9712 L0.6336,18.0942 C1.1386,17.3932 13.1836,0.9422 28.4866,0.9422 C43.7896,0.9422 55.8346,17.3932 56.3406,18.0942 L56.9736,18.9712 L56.3406,19.8482 C55.8346,20.5492 43.7896,37.0002 28.4866,37.0002" mask="url(#preview-b)"/>
    </g>
    <path fill="#FFF" d="M28.4868,12.4614 C24.9078,12.4614 21.9958,15.4074 21.9958,19.0284 C21.9958,22.6504 24.9078,25.5964 28.4868,25.5964 C32.0658,25.5964 34.9778,22.6504 34.9778,19.0284 C34.9778,15.4074 32.0658,12.4614 28.4868,12.4614 M28.4868,28.5964 C23.2538,28.5964 18.9958,24.3044 18.9958,19.0284 C18.9958,13.7534 23.2538,9.4614 28.4868,9.4614 C33.7198,9.4614 37.9778,13.7534 37.9778,19.0284 C37.9778,24.3044 33.7198,28.5964 28.4868,28.5964"/>
  </g>
</svg>
